<mxfile host="app.diagrams.net" modified="2023-10-12T00:16:51.474Z" agent="Mozilla/5.0 (Windows NT 10.0; Win64; x64) AppleWebKit/537.36 (KHTML, like Gecko) Chrome/117.0.0.0 Safari/537.36" version="22.0.4" etag="qU-AJI7efL5oKrrOn_w6" type="github">
  <diagram name="PÃ¡gina-1" id="y0lsbMrFzul1vOgKzd0r">
    <mxGraphModel>
      <root>
        <mxCell id="0" />
        <mxCell id="1" parent="0" />
      </root>
    </mxGraphModel>
  </diagram>
</mxfile>
